<?xml version="1.0" standalone="no"?><!-- Generator: Gravit.io --><svg xmlns="http://www.w3.org/2000/svg" xmlns:xlink="http://www.w3.org/1999/xlink" style="isolation:isolate" viewBox="273.805 375.175 69.195 40.52" width="69.195" height="40.52"><g id="Group"><path d=" M 275.542 376.912 C 277.857 374.596 281.617 374.596 283.933 376.912 C 286.248 379.227 286.248 382.987 283.933 385.302 C 281.617 387.618 277.857 387.618 275.542 385.302 C 273.226 382.987 273.226 379.227 275.542 376.912 Z " fill="rgb(0,0,0)"/><path d=" M 341.263 376.912 C 343.579 379.227 343.579 382.987 341.263 385.302 C 338.948 387.618 335.188 387.618 332.872 385.302 C 330.557 382.987 330.557 379.227 332.872 376.912 C 335.188 374.596 338.948 374.596 341.263 376.912 Z " fill="rgb(0,0,0)"/><path d=" M 303.978 405.348 C 306.293 403.032 310.053 403.032 312.369 405.348 C 314.684 407.663 314.684 411.423 312.369 413.739 C 310.053 416.054 306.293 416.054 303.978 413.739 C 301.662 411.423 301.662 407.663 303.978 405.348 Z " fill="rgb(235,235,235)"/><path d=" M 312.608 405.567 C 314.923 407.883 314.923 411.643 312.608 413.958 C 310.292 416.274 306.532 416.274 304.217 413.958 C 301.901 411.643 301.901 407.883 304.217 405.567 C 306.532 403.252 310.292 403.252 312.608 405.567 Z " fill="rgb(0,0,0)"/><rect x="273.848" y="389.392" width="40.215" height="11.867" transform="matrix(0.707,0.707,-0.707,0.707,365.635,-92.07)" fill="rgb(0,0,0)"/><rect x="302.742" y="389.392" width="40.215" height="11.867" transform="matrix(-0.707,0.707,-0.707,-0.707,830.676,446.573)" fill="rgb(0,0,0)"/></g></svg>